<svg id="Layer_1" data-name="Layer 1" xmlns="http://www.w3.org/2000/svg" viewBox="0 0 2560 2560"><defs><style>.cls-1{fill:#fff;}.cls-2,.cls-3{fill:#1b1f23;}.cls-2{fill-rule:evenodd;}</style></defs><title>thumbnail 404</title><rect class="cls-1" width="2560" height="2560"/><path class="cls-2" d="M1581.5,1094.92c5.85-14.4,24.75-71.55-5.85-149,0,0-47.25-14.85-154.8,58.5-45-12.6-93.15-14.4-140.85-14.4s-95.85,1.8-140.85,14.4c-107.55-73.8-154.8-58.5-154.8-58.5-30.6,77.4-11.7,134.55-5.85,149-36.45,39.15-58.5,89.55-58.5,150.75,0,231.74,149.85,283.94,359.1,283.94s360.9-52.2,360.9-283.94C1640,1184.47,1618,1134.07,1581.5,1094.92ZM1280,1485.52c-148.5,0-269.1-6.76-269.1-150.75,0-34.2,17.1-66.6,45.9-93.15,48.15-44.1,130.5-20.7,223.2-20.7,93.15,0,174.6-23.4,223.2,20.7,29.25,26.55,45.9,58.5,45.9,93.15C1549.1,1478.31,1428.5,1485.52,1280,1485.52Zm-113-145.13c-29.7,0-54-44.32-54-.22s24.3,80.54,54,80.54,54-36,54-80.54S1196.75,1340.39,1167.05,1340.39Zm225.9,0c-29.7,0-54-44.77-54-.22s24.3,80.54,54,80.54,54-36,54-80.54S1423.1,1340.39,1393,1340.39Z"/><path class="cls-3" d="M1287.2,944.65v-23.4l59.85-90.45h-54V798.4h101.7v23.4l-59.85,90.45h60.3v32.4Z"/><path class="cls-3" d="M1414.19,841.72V823l47.88-72.36h-43.2V724.72h81.36v18.72l-47.88,72.36h48.24v25.92Z"/><path class="cls-3" d="M1519.73,752.85v-9.36l24-36.18h-21.61v-13h40.69v9.36l-24,36.18h24.13v13Z"/><path class="cls-3" d="M835.59,1687.8v-83.45h30.08a52,52,0,0,1,16.13,2.37,23.48,23.48,0,0,1,11.65,8q4.35,5.63,4.35,15.61,0,9.23-4,15.17a24.67,24.67,0,0,1-10.82,8.9l18.94,33.4H880.77l-16-30.08H854.41v30.08Zm18.82-45h9.72q7.43,0,11.33-3.14t3.91-9.28q0-6.13-3.91-8.57t-11.33-2.44h-9.72Z"/><path class="cls-3" d="M939.65,1689.34a33.65,33.65,0,0,1-16.38-4A28.88,28.88,0,0,1,911.75,1674q-4.23-7.43-4.23-17.92t4.29-17.79a30.75,30.75,0,0,1,11.2-11.46,28.29,28.29,0,0,1,14.47-4q9.09,0,15,4a25.08,25.08,0,0,1,9,10.88,38.41,38.41,0,0,1,3,15.55,44.57,44.57,0,0,1-.25,4.8,34.84,34.84,0,0,1-.51,3.52h-38q1.27,6.92,5.76,10.18a17.74,17.74,0,0,0,10.75,3.26,26.11,26.11,0,0,0,13.7-4.22l6.27,11.39a41.39,41.39,0,0,1-10.88,5.25A38.22,38.22,0,0,1,939.65,1689.34Zm-14.08-40.19h22.91a14.22,14.22,0,0,0-2.49-8.64q-2.49-3.39-8.13-3.39a11.61,11.61,0,0,0-7.81,3Q926.6,1643.14,925.57,1649.15Z"/><path class="cls-3" d="M977.54,1711.36v-87H992.9l1.28,6.27h.51a35.31,35.31,0,0,1,8.39-5.57,22.11,22.11,0,0,1,9.66-2.24q11.52,0,18.18,8.77t6.65,23.49q0,10.88-3.84,18.56a29.45,29.45,0,0,1-9.92,11.71,23.05,23.05,0,0,1-13,4,19.2,19.2,0,0,1-7.94-1.73,25,25,0,0,1-7.16-4.93l.64,10.12v18.56Zm28.93-37.38q4.86,0,8.32-4.48t3.45-14.21q0-17.14-11-17.15-5.5,0-10.88,5.76v26a14.7,14.7,0,0,0,10.11,4.1Z"/><path class="cls-3" d="M1078.15,1689.34a31,31,0,0,1-15.17-3.9,29.66,29.66,0,0,1-11.46-11.4q-4.35-7.49-4.35-18t4.35-18a29.82,29.82,0,0,1,11.46-11.33,31,31,0,0,1,15.17-3.9,30.67,30.67,0,0,1,15.1,3.9,30,30,0,0,1,11.39,11.33q4.35,7.42,4.36,18t-4.36,18a29.83,29.83,0,0,1-11.39,11.4A30.67,30.67,0,0,1,1078.15,1689.34Zm0-15.23a9.51,9.51,0,0,0,8.7-4.93q2.94-4.92,3-13.12t-3-13.18a10.27,10.27,0,0,0-17.47,0q-2.88,4.86-2.88,13.18t2.88,13.12A9.48,9.48,0,0,0,1078.15,1674.11Z"/><path class="cls-3" d="M1140,1689.34a37,37,0,0,1-12.86-2.43,39.68,39.68,0,0,1-11.46-6.4l8.45-11.78a42.5,42.5,0,0,0,8.38,4.93,20.25,20.25,0,0,0,8,1.73q4.23,0,6.15-1.47a4.69,4.69,0,0,0,1.92-3.91,4.31,4.31,0,0,0-1.86-3.58,22.08,22.08,0,0,0-4.8-2.63q-2.94-1.21-6.27-2.49a52.32,52.32,0,0,1-7.62-3.84,21.13,21.13,0,0,1-6.33-6,15.1,15.1,0,0,1-2.56-8.9,17.66,17.66,0,0,1,6.72-14.34q6.72-5.49,17.6-5.5a31.06,31.06,0,0,1,12.86,2.5,47.19,47.19,0,0,1,9.54,5.56l-8.45,11.27a30.38,30.38,0,0,0-6.66-4,16.92,16.92,0,0,0-6.65-1.41q-7.3,0-7.3,5,0,3.08,3.65,4.68t8.51,3.39a45.85,45.85,0,0,1,8,3.65,20.55,20.55,0,0,1,6.53,5.88,16,16,0,0,1,2.62,9.54,18.78,18.78,0,0,1-6.65,14.53Q1152.77,1689.34,1140,1689.34Z"/><path class="cls-3" d="M1187.33,1615a10.9,10.9,0,0,1-7.68-2.69,10.2,10.2,0,0,1,0-14.33,12.31,12.31,0,0,1,15.36,0,10.18,10.18,0,0,1,0,14.33A10.9,10.9,0,0,1,1187.33,1615ZM1178,1687.8v-63.48h18.81v63.48Z"/><path class="cls-3" d="M1237.76,1689.34q-11.77,0-16.83-6.78t-5.06-17.8V1639h-8.7v-14l9.73-.76,2.17-16.9h15.62v16.9h15.23V1639h-15.23v25.47q0,5.37,2.24,7.74a7.8,7.8,0,0,0,6,2.37,13.74,13.74,0,0,0,3.14-.38,22.3,22.3,0,0,0,2.88-.9l2.94,13.7q-2.43.76-5.95,1.53A38.58,38.58,0,0,1,1237.76,1689.34Z"/><path class="cls-3" d="M1287.3,1689.34a31,31,0,0,1-15.17-3.9,29.66,29.66,0,0,1-11.46-11.4q-4.35-7.49-4.35-18t4.35-18a29.82,29.82,0,0,1,11.46-11.33,31,31,0,0,1,15.17-3.9,30.67,30.67,0,0,1,15.1,3.9,30,30,0,0,1,11.39,11.33q4.35,7.42,4.36,18t-4.36,18a29.83,29.83,0,0,1-11.39,11.4A30.67,30.67,0,0,1,1287.3,1689.34Zm0-15.23a9.51,9.51,0,0,0,8.7-4.93q2.94-4.92,3-13.12t-3-13.18a10.27,10.27,0,0,0-17.47,0q-2.88,4.86-2.88,13.18t2.88,13.12A9.48,9.48,0,0,0,1287.3,1674.11Z"/><path class="cls-3" d="M1331.07,1687.8v-63.48h15.36l1.28,11.13h.52a25.28,25.28,0,0,1,8.31-9.53,17.88,17.88,0,0,1,9.73-3.14,26.37,26.37,0,0,1,4.48.32,11.17,11.17,0,0,1,3.08,1l-3.08,16.26a24.31,24.31,0,0,0-3.26-.77,23.34,23.34,0,0,0-3.65-.26,13.53,13.53,0,0,0-7.49,2.63q-3.9,2.63-6.46,9v36.86Z"/><path class="cls-3" d="M1390,1712.64a27.45,27.45,0,0,1-4.93-.39c-1.4-.25-2.75-.55-4-.89l3.33-14.34a14.59,14.59,0,0,1,2,.45,8.2,8.2,0,0,0,2.17.32q4.74,0,7.3-2.31a14.08,14.08,0,0,0,3.84-6l.9-3.33-24.45-61.82h18.94l9.09,27.26c.94,2.9,1.79,5.85,2.56,8.83s1.58,6.06,2.43,9.22h.51q1-4.49,2.12-9c.72-3,1.47-6,2.23-9l7.69-27.26h18l-22,64.12a66.76,66.76,0,0,1-6.53,13.38,23.67,23.67,0,0,1-8.64,8.13A26.66,26.66,0,0,1,1390,1712.64Z"/><path class="cls-3" d="M1497.85,1689.34q-11.77,0-18.88-8.9t-7.1-24.38a39.25,39.25,0,0,1,3.78-17.86,28.63,28.63,0,0,1,9.85-11.45,22.92,22.92,0,0,1,12.74-4,19.68,19.68,0,0,1,8.83,1.79,27.73,27.73,0,0,1,6.78,4.87l-.76-9.73v-21.63h18.81v89.72h-15.36l-1.28-6.27h-.51a29.64,29.64,0,0,1-7.81,5.57A20.16,20.16,0,0,1,1497.85,1689.34Zm4.87-15.36a12.08,12.08,0,0,0,5.57-1.28,14.2,14.2,0,0,0,4.8-4.48v-26a13.64,13.64,0,0,0-5.19-3.2,17,17,0,0,0-5.31-.9q-4.48,0-7.94,4.29t-3.45,13.37q0,9.35,3,13.76A9.68,9.68,0,0,0,1502.72,1674Z"/><path class="cls-3" d="M1575.81,1689.34a31,31,0,0,1-15.17-3.9,29.66,29.66,0,0,1-11.46-11.4q-4.35-7.49-4.35-18t4.35-18a29.82,29.82,0,0,1,11.46-11.33,31,31,0,0,1,15.17-3.9,30.67,30.67,0,0,1,15.1,3.9A30,30,0,0,1,1602.3,1638q4.35,7.42,4.35,18t-4.35,18a29.83,29.83,0,0,1-11.39,11.4A30.67,30.67,0,0,1,1575.81,1689.34Zm0-15.23a9.51,9.51,0,0,0,8.7-4.93q2.94-4.92,2.94-13.12t-2.94-13.18a10.27,10.27,0,0,0-17.47,0q-2.88,4.86-2.88,13.18t2.88,13.12A9.48,9.48,0,0,0,1575.81,1674.11Z"/><path class="cls-3" d="M1648,1689.34a33.71,33.71,0,0,1-16.39-4,29,29,0,0,1-11.52-11.39q-4.21-7.43-4.22-17.92t4.29-17.79a30.68,30.68,0,0,1,11.2-11.46,28.25,28.25,0,0,1,14.46-4q9.09,0,15,4a25,25,0,0,1,9,10.88,38.24,38.24,0,0,1,3,15.55,44.55,44.55,0,0,1-.26,4.8,34.84,34.84,0,0,1-.51,3.52h-38q1.29,6.92,5.76,10.18a17.77,17.77,0,0,0,10.76,3.26,26.08,26.08,0,0,0,13.69-4.22l6.27,11.39a41.39,41.39,0,0,1-10.88,5.25A38.2,38.2,0,0,1,1648,1689.34Zm-14.08-40.19h22.91a14.15,14.15,0,0,0-2.5-8.64q-2.49-3.39-8.12-3.39a11.58,11.58,0,0,0-7.81,3Q1634.94,1643.14,1633.92,1649.15Z"/><path class="cls-3" d="M1704.57,1689.34a37,37,0,0,1-12.86-2.43,39.68,39.68,0,0,1-11.46-6.4l8.45-11.78a42.5,42.5,0,0,0,8.38,4.93,20.25,20.25,0,0,0,8,1.73q4.23,0,6.15-1.47a4.69,4.69,0,0,0,1.92-3.91,4.31,4.31,0,0,0-1.86-3.58,22.08,22.08,0,0,0-4.8-2.63q-2.94-1.21-6.27-2.49a52.32,52.32,0,0,1-7.62-3.84,21.13,21.13,0,0,1-6.33-6,15.1,15.1,0,0,1-2.56-8.9,17.66,17.66,0,0,1,6.72-14.34q6.72-5.49,17.6-5.5a31.06,31.06,0,0,1,12.86,2.5,47.19,47.19,0,0,1,9.54,5.56l-8.45,11.27a30.38,30.38,0,0,0-6.66-4,16.92,16.92,0,0,0-6.65-1.41q-7.31,0-7.3,5,0,3.08,3.65,4.68t8.51,3.39a45.85,45.85,0,0,1,8,3.65,20.55,20.55,0,0,1,6.53,5.88,16,16,0,0,1,2.62,9.54,18.78,18.78,0,0,1-6.65,14.53Q1717.37,1689.34,1704.57,1689.34Z"/><path class="cls-3" d="M689.61,1841.4v-63.48H705l1.28,8.06h.51a50.25,50.25,0,0,1,9-6.72,22,22,0,0,1,11.33-2.88q10.36,0,15,6.85t4.67,18.75v39.42H728v-37c0-4.61-.62-7.76-1.86-9.47s-3.22-2.56-5.95-2.56a11.36,11.36,0,0,0-6.15,1.6,36.67,36.67,0,0,0-5.63,4.54v42.88Z"/><path class="cls-3" d="M790.08,1842.94a31,31,0,0,1-15.16-3.9,29.66,29.66,0,0,1-11.46-11.4q-4.35-7.48-4.35-18t4.35-18.05a29.82,29.82,0,0,1,11.46-11.33,31,31,0,0,1,15.16-3.9,30.68,30.68,0,0,1,15.11,3.9,30,30,0,0,1,11.39,11.33q4.35,7.42,4.35,18.05t-4.35,18a29.83,29.83,0,0,1-11.39,11.4A30.68,30.68,0,0,1,790.08,1842.94Zm0-15.23a9.52,9.52,0,0,0,8.71-4.93q2.94-4.92,2.94-13.12t-2.94-13.18a10.27,10.27,0,0,0-17.47,0q-2.88,4.86-2.88,13.18t2.88,13.12A9.47,9.47,0,0,0,790.08,1827.71Z"/><path class="cls-3" d="M855,1842.94q-11.78,0-16.83-6.78t-5.06-17.8v-25.72h-8.7v-14l9.73-.76,2.17-16.9h15.62v16.9h15.23v14.72H851.91v25.47q0,5.37,2.24,7.74a7.8,7.8,0,0,0,6,2.37,13.23,13.23,0,0,0,3.14-.39,20.88,20.88,0,0,0,2.88-.89l2.94,13.7q-2.43.77-5.95,1.53A38.58,38.58,0,0,1,855,1842.94Z"/><path class="cls-3" d="M905.16,1841.4v-89.72H924v22l-.89,11.39a49.58,49.58,0,0,1,8.38-5.95,22.16,22.16,0,0,1,11.2-2.75q10.37,0,15,6.85t4.67,18.75v39.42H943.56v-37c0-4.61-.62-7.76-1.86-9.47s-3.22-2.56-6-2.56a11.36,11.36,0,0,0-6.15,1.6,36.67,36.67,0,0,0-5.63,4.54v42.88Z"/><path class="cls-3" d="M994.24,1842.94q-8.7,0-13.82-5.57a19.4,19.4,0,0,1-5.12-13.63,17.79,17.79,0,0,1,8.45-15.62q8.44-5.62,27.26-7.55a10.72,10.72,0,0,0-2.49-6.72c-1.5-1.66-4-2.49-7.49-2.49a23,23,0,0,0-8.07,1.53,57.32,57.32,0,0,0-8.7,4.23l-6.78-12.42a62.45,62.45,0,0,1,12.86-6,44.58,44.58,0,0,1,14.27-2.3q12.17,0,18.69,7t6.53,21.63v36.35h-15.36l-1.28-6.52h-.51a37.4,37.4,0,0,1-8.51,5.82A22.23,22.23,0,0,1,994.24,1842.94Zm6.41-14.59a10.32,10.32,0,0,0,5.56-1.47,27.14,27.14,0,0,0,4.8-3.91v-11.14q-10,1.29-13.82,4c-2.56,1.83-3.84,4-3.84,6.46a5.3,5.3,0,0,0,2,4.55A8.72,8.72,0,0,0,1000.65,1828.35Z"/><path class="cls-3" d="M1060.29,1841.4l-21.37-63.48h18.94l8.19,29.95q1.28,4.74,2.5,9.66t2.49,9.92h.52q1.14-5,2.36-9.92t2.5-9.66l8.32-29.95h18l-20.74,63.48Z"/><path class="cls-3" d="M1140,1842.94a33.71,33.71,0,0,1-16.39-4,29,29,0,0,1-11.52-11.39q-4.22-7.42-4.22-17.92t4.29-17.79a30.68,30.68,0,0,1,11.2-11.46,28.22,28.22,0,0,1,14.46-4q9.09,0,15,4a25,25,0,0,1,9,10.88,38.41,38.41,0,0,1,3,15.55,44.69,44.69,0,0,1-.26,4.8,34.84,34.84,0,0,1-.51,3.52h-38q1.29,6.91,5.76,10.18a17.75,17.75,0,0,0,10.76,3.26,26.08,26.08,0,0,0,13.69-4.22l6.27,11.39a41.39,41.39,0,0,1-10.88,5.25A38.2,38.2,0,0,1,1140,1842.94ZM1126,1802.75h22.91a14.15,14.15,0,0,0-2.5-8.64c-1.66-2.26-4.37-3.4-8.13-3.4a11.58,11.58,0,0,0-7.8,3Q1127,1796.74,1126,1802.75Z"/><path class="cls-3" d="M1219.52,1842.94q-8.7,0-13.82-5.57a19.36,19.36,0,0,1-5.12-13.63,17.77,17.77,0,0,1,8.45-15.62q8.45-5.62,27.26-7.55a10.67,10.67,0,0,0-2.5-6.72c-1.49-1.66-4-2.49-7.48-2.49a23,23,0,0,0-8.07,1.53,57.32,57.32,0,0,0-8.7,4.23l-6.79-12.42a62.53,62.53,0,0,1,12.87-6,44.58,44.58,0,0,1,14.27-2.3q12.16,0,18.69,7t6.53,21.63v36.35h-15.36l-1.28-6.52H1238a37,37,0,0,1-8.51,5.82A22.15,22.15,0,0,1,1219.52,1842.94Zm6.4-14.59a10.36,10.36,0,0,0,5.57-1.47,27.14,27.14,0,0,0,4.8-3.91v-11.14q-10,1.29-13.82,4c-2.56,1.83-3.84,4-3.84,6.46a5.3,5.3,0,0,0,2,4.55A8.71,8.71,0,0,0,1225.92,1828.35Z"/><path class="cls-3" d="M1321,1842.94q-11.79,0-16.84-6.78t-5-17.8v-25.72h-8.71v-14l9.73-.76,2.18-16.9H1318v16.9h15.24v14.72H1318v25.47q0,5.37,2.24,7.74a7.83,7.83,0,0,0,6,2.37,13.21,13.21,0,0,0,3.13-.39,20.05,20.05,0,0,0,2.88-.89l2.95,13.7c-1.63.51-3.61,1-6,1.53A38.48,38.48,0,0,1,1321,1842.94Z"/><path class="cls-3" d="M1345.6,1841.4v-89.72h18.82v22l-.9,11.39a50,50,0,0,1,8.38-5.95,22.19,22.19,0,0,1,11.2-2.75q10.38,0,15,6.85t4.68,18.75v39.42H1384v-37c0-4.61-.62-7.76-1.86-9.47s-3.22-2.56-6-2.56a11.3,11.3,0,0,0-6.14,1.6,35.74,35.74,0,0,0-5.63,4.54v42.88Z"/><path class="cls-3" d="M1437.76,1842.94q-10.37,0-15-6.85t-4.67-18.75v-39.42h18.81v37q0,6.78,1.92,9.41t6,2.62a10.43,10.43,0,0,0,6-1.66,24,24,0,0,0,5.24-5.38v-42h18.82v63.48h-15.36l-1.41-8.83h-.38a34.05,34.05,0,0,1-8.71,7.55A21.59,21.59,0,0,1,1437.76,1842.94Z"/><path class="cls-3" d="M1491.39,1841.4v-63.48h15.36l1.28,8.19h.51a50.63,50.63,0,0,1,8.45-6.85,19.46,19.46,0,0,1,10.75-2.88c4.53,0,8.17.92,11,2.75a18.92,18.92,0,0,1,6.59,7.87,54.22,54.22,0,0,1,9-7.48,19.5,19.5,0,0,1,11-3.14q10.23,0,15,6.85t4.8,18.75v39.42h-18.82v-37c0-4.61-.62-7.76-1.85-9.47s-3.23-2.56-6-2.56q-4.73,0-10.88,6.14v42.88h-18.81v-37c0-4.61-.62-7.76-1.86-9.47s-3.22-2.56-6-2.56q-4.74,0-10.75,6.14v42.88Z"/><path class="cls-3" d="M1634.37,1842.94a19.13,19.13,0,0,1-8.52-2.11,27,27,0,0,1-8-6.21h-.51l-1.53,6.78h-14.72v-89.72h18.81v22l-.51,9.73a28.82,28.82,0,0,1,8.07-5.18,21.94,21.94,0,0,1,8.7-1.86,22.49,22.49,0,0,1,13.31,4,25.1,25.1,0,0,1,8.64,11.2,44,44,0,0,1,3,17q0,10.88-3.84,18.62a29.41,29.41,0,0,1-9.92,11.78A23.1,23.1,0,0,1,1634.37,1842.94Zm-4.36-15.36q4.88,0,8.32-4.48t3.46-14.21q0-17.15-11-17.15-5.62,0-10.88,5.76v26a15.18,15.18,0,0,0,5.12,3.2A15,15,0,0,0,1630,1827.58Z"/><path class="cls-3" d="M1674.43,1841.4v-63.48h15.36l1.28,8.06h.51a50,50,0,0,1,9-6.72,22,22,0,0,1,11.32-2.88q10.38,0,15,6.85t4.68,18.75v39.42h-18.82v-37c0-4.61-.62-7.76-1.86-9.47s-3.22-2.56-6-2.56a11.3,11.3,0,0,0-6.14,1.6,35.74,35.74,0,0,0-5.63,4.54v42.88Z"/><path class="cls-3" d="M1763.65,1842.94q-8.72,0-13.83-5.57a19.4,19.4,0,0,1-5.12-13.63,17.79,17.79,0,0,1,8.45-15.62q8.44-5.62,27.26-7.55a10.72,10.72,0,0,0-2.49-6.72c-1.5-1.66-4-2.49-7.49-2.49a22.86,22.86,0,0,0-8.06,1.53,57,57,0,0,0-8.71,4.23l-6.78-12.42a62.45,62.45,0,0,1,12.86-6,44.62,44.62,0,0,1,14.27-2.3q12.16,0,18.69,7t6.53,21.63v36.35h-15.36l-1.28-6.52h-.51a37.4,37.4,0,0,1-8.51,5.82A22.19,22.19,0,0,1,1763.65,1842.94Zm6.39-14.59a10.33,10.33,0,0,0,5.57-1.47,27.14,27.14,0,0,0,4.8-3.91v-11.14q-10,1.29-13.82,4c-2.56,1.83-3.84,4-3.84,6.46a5.3,5.3,0,0,0,2,4.55A8.75,8.75,0,0,0,1770,1828.35Z"/><path class="cls-3" d="M1824.44,1768.57a10.94,10.94,0,0,1-7.68-2.69,10.2,10.2,0,0,1,0-14.33,12.31,12.31,0,0,1,15.36,0,10.18,10.18,0,0,1,0,14.33A10.9,10.9,0,0,1,1824.44,1768.57Zm-9.34,72.83v-63.48h18.82v63.48Z"/><path class="cls-3" d="M1867.71,1842.94q-9.74,0-13.51-5.82t-3.77-15.43v-70h18.81v70.78c0,2,.36,3.33,1.09,4.1a3.13,3.13,0,0,0,2.24,1.15,6.79,6.79,0,0,0,1.09-.07l1.21-.19,2.31,14a20,20,0,0,1-3.91,1.09A30.12,30.12,0,0,1,1867.71,1842.94Z"/></svg>